<svg viewBox="0 0 24 24" xmlns="http://www.w3.org/2000/svg">
  <path d="M6.915 4.03c-1.968 0-3.683 1.28-4.871 3.113C.704 9.208 0 11.883 0 14.449c0 .706.07 1.369.21 1.973a4.918 4.918 0 0 0 1.026 1.973c.487.567 1.09.93 1.85.93 1.078 0 1.984-.647 2.817-1.46a21.826 21.826 0 0 0 2.132-2.676c.476-.678.92-1.351 1.344-2.037a6.883 6.883 0 0 1-.398-2.106c0-1.024.315-1.913.884-2.594.57-.68 1.357-1.041 2.297-1.041.777 0 1.45.307 1.988.872.537.566.826 1.29.882 2.15.056.858-.103 1.779-.432 2.715-.329.936-.746 1.772-1.228 2.458a23.107 23.107 0 0 1-2.102 2.658c-.832.935-1.738 1.637-2.724 2.098-.986.461-2.09.695-3.298.695-1.037 0-1.951-.217-2.732-.653a4.73 4.73 0 0 1-1.834-1.78A4.906 4.906 0 0 1 0 17.553v-.008c0-.2.008-.39.025-.578a9.818 9.818 0 0 1-.025-.684c0-2.684.717-5.402 2.09-7.644C3.502 6.385 5.318 4.955 7.26 4.955c.756 0 1.437.179 2.022.52.586.34 1.012.821 1.293 1.416.28.594.42 1.264.42 1.998 0 .594-.07 1.173-.21 1.727a14.02 14.02 0 0 1-.508 1.626 24.918 24.918 0 0 1-.73 1.782c-.265.602-.519 1.16-.762 1.686-.243.525-.452.998-.63 1.419-.178.42-.317.777-.417 1.068a6.6 6.6 0 0 0-.203.872c.198-.18.445-.422.739-.726.294-.304.628-.665 1-1.085.373-.42.772-.882 1.197-1.386.425-.504.858-1.027 1.299-1.566a31.41 31.41 0 0 0 1.273-1.697c.414-.604.79-1.193 1.124-1.765a13.732 13.732 0 0 0 .872-1.702c.236-.558.41-1.077.522-1.556.112-.479.168-.916.168-1.313 0-.504-.065-.97-.196-1.399a3.31 3.31 0 0 0-.588-1.133 2.737 2.737 0 0 0-.987-.778 3.097 3.097 0 0 0-1.372-.283c-1.065 0-2.06.379-2.95 1.132-.89.754-1.68 1.765-2.357 3.034a17.47 17.47 0 0 0-1.564 4.118 19.946 19.946 0 0 0-.605 4.333v.035c.012.316.039.625.08.925.042.3.103.598.185.887.162.573.392 1.093.7 1.546.308.454.694.815 1.175 1.064.481.249 1.072.378 1.781.378 1.127 0 2.155-.236 3.098-.703.943-.467 1.807-1.094 2.593-1.878a22.25 22.25 0 0 0 2.138-2.567 27.716 27.716 0 0 0 1.76-2.886c.502-.922.903-1.803 1.208-2.632.304-.83.509-1.579.612-2.246a7.53 7.53 0 0 0 .11-1.403c0-.854-.186-1.582-.557-2.181a3.678 3.678 0 0 0-1.498-1.391 4.175 4.175 0 0 0-2.05-.496c-.96 0-1.938.31-2.92.93-.982.621-1.93 1.45-2.841 2.483-.912 1.034-1.765 2.208-2.553 3.522-.788 1.314-1.468 2.679-2.04 4.093a20.932 20.932 0 0 0-1.193 4.118 16.78 16.78 0 0 0-.315 3.202c0 1.032.14 1.968.42 2.795.28.828.683 1.533 1.208 2.108.525.575 1.158 1.011 1.899 1.31.74.298 1.566.449 2.477.449 1.39 0 2.679-.27 3.867-.805 1.188-.535 2.27-1.256 3.245-2.157a18.8 18.8 0 0 0 2.617-3.14c.761-1.148 1.394-2.346 1.904-3.587.509-1.24.877-2.48 1.103-3.714.227-1.234.34-2.406.34-3.519 0-1.298-.171-2.491-.512-3.58a8.12 8.12 0 0 0-1.547-2.892 7.288 7.288 0 0 0-2.611-1.975c-1.036-.492-2.239-.739-3.606-.739z" fill="#0081FB"/>
</svg>
